<svg id="Group_127" data-name="Group 127" xmlns="http://www.w3.org/2000/svg" width="65.464" height="68" viewBox="0 0 65.464 68">
  <g id="Group_119" data-name="Group 119">
    <g id="Group_118" data-name="Group 118">
      <path id="Path_167" data-name="Path 167" d="M55.346,9.663a32.257,32.257,0,0,0-46.044,0,35.372,35.372,0,0,0,.814,48.674,32.257,32.257,0,0,0,46.044,0A35.372,35.372,0,0,0,55.346,9.663ZM54.6,56.719l-.011-.011a30.12,30.12,0,0,1-43.741-.021,33.015,33.015,0,0,1,.02-45.436,30.121,30.121,0,0,1,43.741.021A33.044,33.044,0,0,1,54.6,56.719Z" transform="translate(0.001)" fill="#fff"/>
    </g>
  </g>
  <g id="Group_121" data-name="Group 121" transform="translate(9.938 11.424)">
    <g id="Group_120" data-name="Group 120" transform="translate(0 0)">
      <path id="Path_168" data-name="Path 168" d="M145.059,135.743l-7.187-7.161a4.182,4.182,0,0,0-5.914-.007l-.007.007-4.118,4.118a.908.908,0,0,1-1.164.1,47.462,47.462,0,0,1-11.087-10.882.9.9,0,0,1,.089-1.164l4.22-4.22a4.182,4.182,0,0,0,0-5.908l-7.187-7.187a4.284,4.284,0,0,0-5.921,0l-2.276,2.276a12.788,12.788,0,0,0-3.171,13.044,38.361,38.361,0,0,0,4.68,9.489,49.742,49.742,0,0,0,14.361,14.105,36.608,36.608,0,0,0,10.639,4.731,12.317,12.317,0,0,0,2.967.358,12.941,12.941,0,0,0,9.118-3.836l1.957-1.957A4.181,4.181,0,0,0,145.059,135.743Zm-1.811,4.164-.005.005.013-.038L141.3,141.83a10.23,10.23,0,0,1-9.655,2.762,33.993,33.993,0,0,1-9.872-4.425,47.279,47.279,0,0,1-13.606-13.338,35.8,35.8,0,0,1-4.373-8.849,10.23,10.23,0,0,1,2.558-10.448l2.276-2.276a1.624,1.624,0,0,1,2.3-.005l.005.005,7.187,7.187a1.624,1.624,0,0,1,.005,2.3l-.005.005-4.22,4.22a3.44,3.44,0,0,0-.358,4.476,50.375,50.375,0,0,0,11.7,11.484,3.465,3.465,0,0,0,4.425-.384l4.079-4.143a1.624,1.624,0,0,1,2.3-.005l.005.005,7.2,7.212A1.624,1.624,0,0,1,143.248,139.907Z" transform="translate(-100.712 -102.253)" fill="#fff"/>
    </g>
  </g>
</svg>
