<svg xmlns="http://www.w3.org/2000/svg" width="58.003" height="58.507" viewBox="0 0 58.003 58.507">
  <g id="hero-icon-2" transform="translate(-1154.953 -551.178)">
    <g id="_001-24-hours-1" data-name="001-24-hours-1" transform="translate(1154.953 551.178)">
      <path id="Path_82" data-name="Path 82" d="M201.049,158.278a1.182,1.182,0,0,0-.151,1.254,1.2,1.2,0,0,0,1.115.638h6.37a1,1,0,1,0,0-1.994h-4.754l4.716-6.216a1.027,1.027,0,0,0,.069-.1,4,4,0,1,0-7.456-1.643,1,1,0,1,0,1.985-.182,2.012,2.012,0,1,1,3.772.779Z" transform="translate(-180.768 -131.306)" fill="#f68d2e"/>
      <path id="Path_83" data-name="Path 83" d="M295.83,160.195a1,1,0,0,0,1-1v-2.251h.8a1,1,0,0,0,0-1.994h-.8V146.87a1,1,0,0,0-1.824-.556l-6.108,9.079a1,1,0,0,0,.827,1.553h5.111V159.2A1,1,0,0,0,295.83,160.195Zm-4.236-5.242,3.239-4.814v4.814Z" transform="translate(-259.944 -131.331)" fill="#f68d2e"/>
      <path id="Path_84" data-name="Path 84" d="M47.687,10.08A1,1,0,1,0,46,11.149,19.631,19.631,0,0,1,49.04,20.7H45.029a1,1,0,0,0,0,1.994H49.04a19.772,19.772,0,0,1-10.858,16.63,13.789,13.789,0,0,0-1.236-1.162l-5.071-4.239a3.622,3.622,0,0,0-4.906.06L21.58,39.376a38.143,38.143,0,0,1-9.9-9.9c1.055-1.055,3.1-3.1,4.038-4.035l1.35-1.353a3.619,3.619,0,0,0,.06-4.906l-4.236-5.072a13.787,13.787,0,0,0-1.162-1.236A19.764,19.764,0,0,1,28.362,2.02V6.031a1,1,0,1,0,1.994,0V2.019a19.629,19.629,0,0,1,9.637,3.088A1,1,0,1,0,41.07,3.429a21.7,21.7,0,0,0-30.951,8.224A5.1,5.1,0,0,0,6.642,10.9C4.8,11.2,3.254,12.667,2.4,14.909c-2.152,5.626-4.409,13.71.811,18.929L17.222,47.853a11.347,11.347,0,0,0,8.363,3.2,30.748,30.748,0,0,0,10.566-2.388c2.241-.858,3.7-2.4,4.011-4.245a5.1,5.1,0,0,0-.755-3.476A21.71,21.71,0,0,0,47.687,10.08ZM38.195,44.088A3.976,3.976,0,0,1,35.438,46.8c-8.117,3.108-13.457,3-16.806-.356L4.617,32.429c-3.349-3.349-3.463-8.69-.358-16.807a3.978,3.978,0,0,1,2.712-2.758c1.309-.219,2.829.656,4.395,2.528L15.6,20.464a1.633,1.633,0,0,1,.059,2.218l-1.349,1.352c-.842.84-2.6,2.6-3.708,3.705a21.244,21.244,0,0,1-1.1-2.2,1,1,0,1,0-1.835.779,33.255,33.255,0,0,0,7.1,9.973,38.091,38.091,0,0,0,6.378,5.181c.019.013.038.025.058.037a24.74,24.74,0,0,0,3.537,1.881,1,1,0,0,0,.778-1.836,21.251,21.251,0,0,1-2.2-1.1l5.06-5.06a1.636,1.636,0,0,1,2.218.06L35.667,39.7c1.872,1.565,2.746,3.085,2.527,4.393Z" transform="translate(-0.012 0)" fill="#f68d2e"/>
      <path id="Path_85" data-name="Path 85" d="M432.263,62.837a1,1,0,0,0,.711-1.7l0,0a1,1,0,1,0-.708,1.7Z" transform="translate(-388.274 -54.775)" fill="#f68d2e"/>
    </g>
    <g id="Group_99" data-name="Group 99" transform="translate(440 8)">
      <path id="Path_46" data-name="Path 46" d="M10.032,0A10.032,10.032,0,1,0,20.065,10.032,10.044,10.044,0,0,0,10.032,0Zm0,0" transform="translate(750.891 579.62)" fill="#2196f3" stroke="#fff" stroke-width="4"/>
      <path id="Path_47" data-name="Path 47" d="M149.848,166.6l-4.834,4.834a.743.743,0,0,1-1.051,0l-2.417-2.417a.743.743,0,1,1,1.051-1.051l1.891,1.891,4.308-4.308a.743.743,0,1,1,1.051,1.051Zm0,0" transform="translate(615.599 421.164)" fill="#fafafa"/>
    </g>
  </g>
</svg>
