<svg xmlns="http://www.w3.org/2000/svg" width="51.956" height="54.685" viewBox="0 0 51.956 54.685">
  <g id="hero-icon-3" transform="translate(-1136 -555)">
    <g id="_001-dollar-symbol" data-name="001-dollar-symbol" transform="translate(1136 555)">
      <path id="Path_79" data-name="Path 79" d="M22.28,44.559A22.29,22.29,0,0,0,42.845,13.7a.881.881,0,1,0-1.626.68A20.495,20.495,0,1,1,29.034,2.9a.881.881,0,1,0,.58-1.664A22.282,22.282,0,1,0,22.28,44.559Zm0,0" transform="translate(44.559 0) rotate(90)" fill="#f68d2e"/>
      <path id="Path_81" data-name="Path 81" d="M138.6,79.317a3.772,3.772,0,0,1,3.768,3.768.881.881,0,1,0,1.762,0,5.539,5.539,0,0,0-4.649-5.459V75.881a.881.881,0,1,0-1.762,0v1.744a5.53,5.53,0,0,0,.881,10.989,3.767,3.767,0,0,1,.044,7.535l-.044,0-.044,0a3.772,3.772,0,0,1-3.724-3.767.881.881,0,1,0-1.762,0,5.538,5.538,0,0,0,4.649,5.459V99.8a.881.881,0,1,0,1.762,0V97.841a5.53,5.53,0,0,0-.881-10.988,3.768,3.768,0,1,1,0-7.536Zm0,0" transform="translate(-116.317 -65.559)" fill="#f68d2e"/>
    </g>
    <g id="Group_106" data-name="Group 106" transform="translate(415 8)">
      <path id="Path_46" data-name="Path 46" d="M10.032,0A10.032,10.032,0,1,0,20.065,10.032,10.044,10.044,0,0,0,10.032,0Zm0,0" transform="translate(750.891 579.62)" fill="#2196f3" stroke="#fff" stroke-width="4"/>
      <path id="Path_47" data-name="Path 47" d="M149.848,166.6l-4.834,4.834a.743.743,0,0,1-1.051,0l-2.417-2.417a.743.743,0,1,1,1.051-1.051l1.891,1.891,4.308-4.308a.743.743,0,1,1,1.051,1.051Zm0,0" transform="translate(615.599 421.164)" fill="#fafafa"/>
    </g>
  </g>
</svg>
