<svg id="Group_123" data-name="Group 123" xmlns="http://www.w3.org/2000/svg" width="68" height="68" viewBox="0 0 68 68">
  <g id="_002-email" data-name="002-email">
    <path id="Path_169" data-name="Path 169" d="M34,0A34,34,0,1,0,68,34,34,34,0,0,0,34,0Zm0,65.733A31.733,31.733,0,1,1,65.733,34,31.733,31.733,0,0,1,34,65.733Zm0,0" fill="#fff"/>
    <path id="Path_170" data-name="Path 170" d="M156.471,144H121.258A1.258,1.258,0,0,0,120,145.258v27.668a1.258,1.258,0,0,0,1.258,1.258h35.214a1.258,1.258,0,0,0,1.258-1.258V145.258A1.258,1.258,0,0,0,156.471,144Zm-3.4,2.515-14.211,12.178-14.211-12.178Zm-30.56,25.153V147.992L138.046,161.3a1.257,1.257,0,0,0,1.635,0l15.533-13.312v23.676Zm0,0" transform="translate(-104.865 -125.092)" fill="#fff"/>
  </g>
</svg>
